<?xml version="1.0" encoding="UTF-8"?><svg xmlns="http://www.w3.org/2000/svg" xmlns:xlink="http://www.w3.org/1999/xlink" viewBox="0 0 805.26 223.71"><defs><style>.g{fill:#fff;}.h{fill:#00aae7;}.i{clip-path:url(#e);}.j{fill:none;}.k{clip-path:url(#f);}</style><clipPath id="e"><rect class="j" width="805.26" height="223.71"/></clipPath><clipPath id="f"><rect class="j" y="0" width="805.26" height="223.71"/></clipPath></defs><g id="a"/><g id="b"><g id="c"><g id="d"><g class="i"><polygon class="h" points="583.24 179.2 583.24 222.02 615.92 222.02 615.92 213.57 596.2 213.57 596.2 204.55 614.23 204.55 614.23 195.54 596.2 195.54 596.2 187.65 615.36 187.65 615.36 179.2 583.24 179.2"/><polygon class="h" points="352.76 179.2 352.76 222.02 384.88 222.02 384.88 213.57 365.73 213.57 365.73 204.55 383.19 204.55 383.19 195.54 365.73 195.54 365.73 187.65 384.32 187.65 384.32 179.2 352.76 179.2"/><polygon class="h" points="478.99 179.2 468.85 192.72 459.26 179.2 445.74 179.2 462.65 202.86 462.65 222.02 475.61 222.02 475.61 202.3 492.51 179.2 478.99 179.2"/><g class="k"><path class="h" d="M435.6,199.48c-2.25-1.13-4.51-2.82-7.89-3.95-1.69-1.13-3.38-1.69-3.95-2.25-.56-.56-1.13-1.13-1.13-2.25s.56-1.69,1.13-2.25,1.69-1.13,3.38-1.13c2.25,0,4.51,.56,6.76,1.69,2.25,1.13,3.95,2.25,5.63,3.38v-10.14c-.56-.56-1.13-.56-2.82-1.13-1.13-.57-2.82-1.13-5.07-1.69-1.13-.56-3.38-1.13-5.63-1.13-3.38,0-6.2,.56-8.45,1.69-2.25,1.13-3.95,2.82-5.07,4.51-1.13,1.69-1.69,3.94-1.69,6.2s.57,4.51,1.69,6.2c1.13,1.69,2.82,3.38,4.51,4.51,1.69,1.13,3.95,2.25,6.2,3.38,2.25,.56,3.95,1.69,5.07,2.25,1.13,.56,1.69,1.69,1.69,2.82,0,.57-.56,1.13-1.13,2.25-.56,.56-2.25,1.13-4.51,1.13s-4.51-.57-6.76-1.13c-2.25-1.13-3.95-2.25-6.2-3.38v10.71c2.25,1.13,4.51,1.69,6.76,2.25,2.25,.56,3.94,.56,5.07,1.13h3.38c3.38,0,6.2-.56,8.45-1.69,2.25-1.13,4.51-2.25,5.63-4.51,1.13-1.69,2.25-4.51,2.25-6.76s-.56-4.51-1.69-6.2c-1.69-2.25-3.38-3.38-5.63-4.5"/><path class="h" d="M520.13,199.48c-1.69-1.13-4.51-2.82-7.89-3.95-1.69-1.13-3.38-1.69-3.95-2.25s-1.13-1.13-1.13-2.25,.56-1.69,1.13-2.25,1.69-1.13,3.38-1.13c2.25,0,4.51,.56,6.76,1.69,2.25,1.13,3.95,2.25,5.63,3.38v-10.14c-.57-.56-1.13-.56-2.82-1.13-1.13-.57-2.82-1.13-5.07-1.69-2.25-.56-3.94-.56-6.76-.56-3.38,0-6.2,.56-8.45,1.69-2.25,1.13-3.95,2.82-5.07,4.51s-1.69,3.94-1.69,6.2,.56,4.51,1.69,6.2c1.13,1.69,2.82,3.38,4.51,4.51,1.69,1.13,3.95,2.25,6.2,3.38,2.25,.56,3.94,1.69,5.07,2.25,1.13,.56,1.69,1.69,1.69,2.82,0,.56-.56,1.13-1.13,2.25-.56,.57-2.25,1.13-4.51,1.13s-4.51-.56-6.76-1.13c-2.25-1.13-3.95-2.25-6.2-3.38v10.71c2.25,1.13,4.51,1.69,6.76,2.25,2.25,.56,3.95,.56,5.07,1.13h3.38c3.38,0,6.2-.56,8.45-1.69,2.25-1.13,4.51-2.25,5.63-4.51,1.13-1.69,2.25-4.51,2.25-6.76s-.56-4.51-1.69-6.2c-1.13-2.82-2.82-3.95-4.5-5.07"/><path class="h" d="M712.85,203.43c-1.13-1.69-2.82-2.82-4.51-4.51-2.25-1.13-4.51-2.82-7.89-3.95-1.69-1.13-3.38-1.69-3.94-2.25-.56-.57-1.13-1.13-1.13-2.25s.56-1.69,1.13-2.25,1.69-1.13,3.38-1.13c2.25,0,4.51,.56,6.76,1.69,2.25,1.13,3.95,2.25,5.63,3.38v-10.14c-.56-.56-1.13-.56-2.82-1.13-1.13-.56-2.82-1.13-5.07-1.69-2.25-.56-3.95-.56-6.76-.56-3.38,0-6.2,.56-8.45,1.69-2.25,1.13-3.95,2.82-5.07,4.51s-1.69,3.94-1.69,6.2,.56,4.51,1.69,6.2c1.13,1.69,2.82,3.38,4.51,4.51,1.69,1.13,3.95,2.25,6.2,3.38,2.25,.56,3.95,1.69,5.07,2.25,1.13,.56,1.69,1.69,1.69,2.82,0,.57-.56,1.13-1.13,2.25-.56,.56-2.25,1.13-4.51,1.13s-4.51-.57-6.76-1.13c-2.25-1.13-3.95-2.25-6.2-3.38v10.71c2.25,1.13,4.51,1.69,6.76,2.25,2.25,.56,3.95,.56,5.07,1.13h3.38c3.38,0,6.2-.56,8.45-1.69,2.25-1.13,4.51-2.25,5.63-4.51,1.13-1.69,2.25-4.51,2.25-6.76,0-2.82-.57-5.08-1.7-6.76"/><path class="h" d="M24.8,199.48c-1.69-1.13-4.51-2.82-7.89-3.95-1.69-1.13-3.38-1.69-3.94-2.25-.56-.56-1.13-1.13-1.13-2.25s.57-1.69,1.13-2.25c.57-.56,1.69-1.13,3.38-1.13,2.25,0,4.51,.56,6.76,1.69,2.25,1.13,3.95,2.25,5.63,3.38v-10.14c-.57-.56-1.13-.56-2.82-1.13-1.13-.57-2.82-1.13-5.07-1.69-1.13-.56-3.38-1.13-5.63-1.13-3.38,0-6.2,.56-8.45,1.69-2.25,1.13-3.94,2.82-5.07,4.51-1.13,1.69-1.69,3.94-1.69,6.2s.57,4.51,1.69,6.2c1.13,1.69,2.82,3.38,4.51,4.51,1.69,1.13,3.94,2.25,6.2,3.38,2.25,.56,3.94,1.69,5.07,2.25,1.13,.56,1.69,1.69,1.69,2.82,0,.57-.56,1.13-1.13,2.25-.57,.56-2.25,1.13-4.51,1.13s-4.51-.57-6.76-1.13c-2.25-1.13-3.94-2.25-6.2-3.38v10.71c2.25,1.13,4.51,1.69,6.76,2.25,2.25,.56,3.95,.56,5.07,1.13h3.38c3.38,0,6.2-.56,8.45-1.69,2.25-1.13,4.51-2.25,5.63-4.51,1.13-1.69,2.25-4.51,2.25-6.76s-.56-4.51-1.69-6.2c-2.25-2.25-3.38-3.38-5.63-4.5"/><polygon class="h" points="531.96 189.9 547.17 189.9 547.17 222.02 560.14 222.02 560.14 189.9 575.91 189.9 575.91 179.2 531.96 179.2 531.96 189.9"/><polygon class="h" points="649.17 195.54 636.21 179.2 624.38 179.2 624.38 222.02 636.77 222.02 636.77 197.23 648.61 211.88 649.73 211.88 661 197.23 661 222.02 673.96 222.02 673.96 179.2 662.13 179.2 649.17 195.54"/><polygon class="h" points="129.61 189.9 145.39 189.9 145.39 222.02 158.35 222.02 158.35 189.9 174.13 189.9 174.13 179.2 129.61 179.2 129.61 189.9"/><polygon class="h" points="93.55 222.02 106.51 222.02 106.51 204.55 124.54 204.55 124.54 196.1 106.51 196.1 106.51 187.65 124.54 187.65 124.54 179.2 93.55 179.2 93.55 222.02"/><path class="h" d="M79.46,185.4c-2.25-2.25-4.51-3.38-7.89-4.51-2.82-1.69-6.2-2.25-10.14-2.25-5.07,0-9.58,1.13-13.52,2.82-3.95,2.25-6.2,4.51-7.89,7.89-1.69,3.95-2.82,7.33-2.82,11.27s1.13,7.33,2.82,10.71c1.69,3.38,4.51,6.2,7.89,7.89,3.38,2.25,7.89,2.82,13.52,2.82,5.07,0,9.58-1.13,13.52-2.82,3.38-1.69,6.2-4.51,8.45-7.89,1.69-3.38,2.82-6.76,2.82-11.27,0-2.82-.56-5.63-1.69-8.45-1.69-2.26-2.82-4.51-5.07-6.2m-8.45,20.85c-1.13,1.69-2.25,2.82-3.95,3.95-1.69,1.13-3.94,1.13-6.2,1.13-3.38,0-6.2-1.13-7.89-2.82-2.25-2.25-2.82-4.51-2.82-7.89s1.13-5.63,2.82-7.89c2.25-2.25,4.51-2.82,7.89-2.82,1.69,0,3.38,0,4.51,.56s2.82,1.13,3.38,2.25c1.13,1.13,1.69,2.25,2.25,3.38,.56,1.13,.56,2.82,.56,4.51,1.13,2.25,.57,3.95-.56,5.63"/><polygon class="h" points="237.24 179.2 228.23 202.86 218.08 179.2 209.07 179.2 198.93 202.86 189.91 179.2 176.38 179.2 194.42 222.59 202.31 222.59 213.58 197.23 224.85 222.59 232.17 222.59 250.77 179.2 237.24 179.2"/><path class="h" d="M266.55,179.2l-19.16,42.83h12.96l3.38-8.45h18.6l3.38,8.45h12.96l-18.6-42.83h-13.53Zm1.13,27.05l6.2-15.78,6.2,15.78h-12.4Z"/><path class="h" d="M338.67,206.24c-1.13-1.13-2.25-2.25-3.38-2.82,1.13-.56,2.25-1.13,3.38-1.69,1.13-.56,1.69-1.69,2.82-3.38,.56-1.69,1.13-3.38,1.13-5.63,0-1.69-.56-3.95-1.69-5.63-1.13-2.25-2.82-3.94-5.07-5.07-2.25-1.69-5.07-2.25-8.45-2.25h-21.98v42.83h12.96v-16.9h1.69c1.69,0,2.82,0,3.38,.56,1.13,.56,1.69,1.13,2.82,2.25,1.13,1.13,2.25,3.38,3.38,6.2l3.38,7.32h14.09l-4.51-9.02c-1.69-3.38-2.81-5.63-3.94-6.76m-11.27-9.58c-1.13,.56-3.38,1.13-6.2,1.13h-2.82v-10.14h2.82c2.82,0,5.07,.56,6.2,1.13,1.13,.56,1.69,2.25,1.69,3.95,0,2.25-.56,3.38-1.69,3.94"/><path class="g" d="M127.92,47.34h-26.49c-1.69,0-2.82,.57-3.94,2.25-9.58,11.83-19.72,23.67-29.3,35.5-1.69,1.69-2.25,1.69-3.95,0-9.58-11.83-19.16-23.67-28.74-35.5-1.13-1.69-2.25-2.25-4.51-2.25H5.64c-3.95,0-5.07,1.13-5.07,5.63v103.69c0,3.95,1.13,5.63,5.07,5.63H31.56c3.95,0,5.63-1.13,5.63-5.07v-50.15c0-1.13,0-1.69,.56-2.82,1.13,.56,1.13,1.13,1.69,1.69,7.33,9.02,14.65,18.03,22.54,27.05,2.82,3.38,5.63,3.38,8.45,0,2.82-3.38,5.63-6.76,8.45-10.14,5.07-6.2,10.14-12.4,15.22-18.6h.57v52.97c0,3.38,1.13,5.07,5.07,5.07h28.18c3.38,0,4.51-1.69,4.51-4.51V52.41c0-3.38-1.7-5.07-4.51-5.07"/><path class="g" d="M318.95,123.41c-2.25-3.95-4.51-7.33-7.89-10.14-1.69-1.69-1.13-2.25,.56-3.38,6.2-3.95,10.14-9.02,11.83-15.78,5.63-18.6-5.63-40.01-27.05-45.08-5.07-1.13-10.14-1.13-15.22-1.69h-50.15c-4.51,0-5.63,1.13-5.63,5.63v103.69c0,3.95,1.13,5.07,5.07,5.07h27.61c3.38,0,5.07-1.13,5.07-5.07v-34.94c0-1.13,0-2.82,1.69-2.82,5.07,0,9.58,.56,12.96,5.07,3.38,3.94,5.63,8.45,7.89,12.96,3.38,7.33,6.76,15.22,10.14,22.54,.56,1.13,1.13,2.25,2.82,2.25h33.25c2.82,0,4.51-2.82,3.38-5.07-5.64-10.71-10.71-21.98-16.35-33.25m-34.94-32.12c-1.69,1.69-3.38,2.25-5.63,2.82-4.51,1.13-9.02,.57-13.52,.57-1.69,0-2.25-.57-2.25-2.25v-16.34c0-1.13,.56-2.25,2.25-2.25,4.51,0,9.58,0,14.09,1.13,6.76,1.69,9.58,10.71,5.07,16.34"/><path class="g" d="M459.27,123.41c-10.71-24.23-21.41-48.46-32.12-72.69-1.13-2.25-2.25-3.38-4.51-3.38h-32.68c-2.25,0-3.38,.57-4.51,2.82-4.51,10.71-9.58,21.41-14.09,32.12-10.71,24.79-21.41,49.02-32.68,73.26-1.69,3.95,0,6.2,3.94,6.2h29.87c2.25,0,3.38-.56,3.95-2.82,2.25-5.63,4.51-11.27,6.76-16.9,.56-1.69,1.69-2.82,3.94-2.82h38.88c2.25,0,3.38,.56,3.94,2.82l6.76,16.9c.57,1.69,1.69,2.25,3.38,2.25h30.43c3.95,0,5.07-2.25,3.95-5.63-5.63-10.15-10.14-21.42-15.21-32.12m-46.21-7.33h-16.34c-2.25,0-2.25-.56-1.69-2.82,3.38-9.02,7.32-17.47,10.71-26.49,0-.56,.57-.56,.57-1.13,3.38,9.02,6.76,16.9,10.14,25.36q2.25,5.07-3.38,5.07"/><path class="g" d="M799.63,134.68h-40.01c-2.82,0-3.38-.56-3.38-3.38v-11.27q0-3.38,3.94-3.38h37.19c3.95,0,5.07-1.13,5.07-5.07v-15.78c0-5.63-.56-6.2-6.2-6.2h-35.5q-3.94,0-3.94-3.38v-6.2c0-5.07-.56-5.07,4.51-5.07h37.75c3.94,0,5.63-1.69,5.63-5.63v-16.34c0-3.95-1.69-5.63-5.63-5.63h-74.95c-4.51,0-5.63,1.13-5.63,5.63v104.25c0,3.38,1.13,5.07,4.51,5.07h77.76c3.38,0,4.51-1.69,4.51-4.51v-16.34c0-5.63-.56-6.76-5.63-6.76"/><path class="g" d="M589.44,126.23c0-3.95-2.82-5.63-6.2-3.38-6.76,3.94-14.09,7.32-21.98,9.02-8.45,1.69-16.34,2.25-24.8-1.13-10.71-3.95-18.03-11.83-18.6-23.67-1.13-11.83,5.07-21.41,16.34-26.49,10.71-5.07,21.41-5.07,32.12-1.69,6.2,1.69,11.27,5.07,16.9,7.89,2.82,1.69,5.63,0,5.63-3.38v-24.8c0-2.82-1.13-3.94-3.38-4.51-3.95-1.13-7.89-2.82-11.83-3.38-17.47-4.51-35.5-6.2-53.53-.56-16.91,5.07-29.87,15.22-36.63,32.12-3.94,9.58-4.51,19.72-3.38,30.43,2.25,21.41,13.52,36.63,33.25,45.64,9.58,4.51,19.16,5.63,29.87,5.63,15.22,0,30.43-2.25,43.95-9.02,2.25-1.13,2.82-2.25,2.82-4.51-.56-8.45-.56-16.34-.56-24.23"/><path class="g" d="M693.69,130.73h-40.01q-3.95,0-4.51-3.95V52.97c0-3.95-1.13-5.07-5.07-5.07h-27.61c-3.95,0-5.07,1.13-5.07,5.63v104.25c0,3.38,1.13,5.07,4.51,5.07h78.33c3.38,0,5.07-1.13,5.07-4.51v-20.85c0-5.63-1.13-6.76-5.63-6.76"/><path class="g" d="M192.73,47.34h-27.05c-4.51,0-5.63,1.13-5.63,5.63v103.12c0,3.95,1.13,5.63,5.07,5.63h27.05c3.94,0,5.07-1.69,5.07-5.07V52.41c.56-3.38-1.13-5.07-4.51-5.07"/><path class="g" d="M178.07,38.32c10.71,0,19.16-8.45,19.16-19.16S188.78,0,178.07,0s-19.16,8.45-19.16,19.16c0,10.71,8.45,19.16,19.16,19.16"/></g></g></g></g></g></svg>